<?xml version="1.0" encoding="utf-8"?>
<!-- Generator: Adobe Illustrator 19.0.0, SVG Export Plug-In . SVG Version: 6.00 Build 0)  -->
<svg version="1.1" id="图层_1" xmlns="http://www.w3.org/2000/svg" xmlns:xlink="http://www.w3.org/1999/xlink" x="0px" y="0px"
	 viewBox="0 0 22 22" style="enable-background:new 0 0 22 22;" xml:space="preserve">
<style type="text/css">
	.st0{fill:#FFFFFF;}
</style>
<path class="st0" d="M21,20.5l-6.2-6.2c0.7-0.7,1.2-1.6,1.6-2.5c0.4-1,0.7-2.2,0.7-3.3c0-1.1-0.2-2.3-0.7-3.3c-0.4-1-1-1.9-1.8-2.7
	c-0.8-0.8-1.7-1.4-2.7-1.8C10.8,0.2,9.7,0,8.5,0C7.4,0,6.2,0.2,5.2,0.7c-1,0.4-1.9,1-2.7,1.8C1.7,3.3,1.1,4.2,0.7,5.2
	C0.2,6.2,0,7.4,0,8.5c0,1.1,0.2,2.3,0.7,3.3c0.4,1,1,1.9,1.8,2.7c0.8,0.8,1.7,1.4,2.7,1.8c1,0.4,2.2,0.7,3.3,0.7
	c1.1,0,2.3-0.2,3.3-0.7c0.6-0.2,1.1-0.5,1.6-0.9l6.3,6.3c0.2,0.2,0.4,0.3,0.6,0.3c0.2,0,0.4-0.1,0.6-0.3
	C21.3,21.4,21.3,20.8,21,20.5L21,20.5z M8.5,15.3c-3.7,0-6.8-3-6.8-6.8c0-3.7,3-6.8,6.8-6.8c3.7,0,6.8,3,6.8,6.8
	C15.3,12.2,12.2,15.3,8.5,15.3L8.5,15.3z M8.5,15.3"/>
</svg>
